<?xml version="1.0"?><svg width="640" height="480" xmlns="http://www.w3.org/2000/svg">
 <title>swirl - magenta</title>
 <metadata id="metadata15">image/svg+xml</metadata>
 <g>
  <title>Layer 1</title>
  <g id="svg_1">
   <path fill="#ff007f" fill-rule="evenodd" stroke-width="1px" d="m125.142509,134.265442c6.198311,-7.822304 4.257469,-19.308296 -1.040604,-22.622101c-9.346741,-6.053535 -19.562698,6.580872 -14.880707,19.151154c4.672623,12.939102 16.369957,21.984375 32.294212,24.570786c34.547333,5.442947 102.881073,-28.093666 146.217651,-38.355995c32.193268,-7.623466 51.858887,3.831863 62.470306,16.519112c-21.809387,-13.776138 -41.687256,-8.984848 -62.143799,-5.602455c-46.937561,7.760719 -95.488495,40.711281 -146.934692,35.52816c-24.019112,-3.199768 -40.848549,-24.468735 -39.464691,-41.146484c0.123116,-1.482086 0.390038,-2.92794 0.808647,-4.321663c3.161705,-9.883842 8.71685,-13.937561 13.638184,-15.139969c13.37719,-3.268417 26.62925,18.474068 9.035492,31.419456z" id="path2383"/>
   <path fill="#ff007f" fill-rule="evenodd" stroke-width="1px" id="path2390" d="m118.49839,150.506104c-4.741226,-6.086273 -9.632416,-15.532837 -13.996658,-19.711609c-45.883659,-43.933342 -69.400063,15.420227 -45.870705,32.477097c3.630646,2.631927 11.154472,4.211777 16.544449,-6.267792c-6.595512,7.275391 -13.914177,4.777405 -16.9375,1.01564c-8.048119,-10.01384 -5.225777,-24.222656 4.238857,-30.711914c14.90765,-8.23391 28.372684,0.574593 40.155453,12.789276c8.415512,7.294464 10.575172,10.698639 17.356049,15.155914c-3.852402,0.231522 -1.828568,-7.092361 -5.494576,-10.529282l4.004631,5.782669z"/>
   <path fill="#ff007f" fill-rule="evenodd" stroke-width="1px" d="m489.640472,131.682465c-6.198364,7.822311 -4.257385,19.308319 1.04071,22.622116c9.346497,6.053528 19.562531,-6.580856 14.880524,-19.151154c-4.672699,-12.939102 -16.369995,-21.984367 -32.294159,-24.570709c-34.547424,-5.443031 -102.881195,28.093597 -146.217896,38.355927c-32.193146,7.623459 -51.858673,-3.831879 -62.46994,-16.519119c21.809387,13.776138 41.686951,8.984848 62.143829,5.602448c46.937592,-7.760712 95.488281,-40.711006 146.93457,-35.528145c24.018921,3.199768 40.848236,24.468742 39.464325,41.146477c-0.122925,1.482162 -0.389771,2.928009 -0.808167,4.321671c-3.161713,9.883835 -8.716949,13.937561 -13.638245,15.139954c-13.377502,3.268433 -26.629395,-18.47406 -9.035553,-31.419464z" id="path2479"/>
   <path fill="#ff007f" fill-rule="evenodd" stroke-width="1px" id="path2481" d="m496.284546,115.441879c4.74115,6.086212 9.632416,15.532776 13.996613,19.711548c45.883636,43.933411 69.400055,-15.420227 45.870758,-32.477097c-3.630676,-2.63192 -11.15448,-4.211708 -16.544434,6.267799c6.595398,-7.275398 13.914063,-4.777351 16.937439,-1.015633c8.048096,10.013832 5.225769,24.222641 -4.238831,30.71196c-14.907654,8.233856 -28.372681,-0.574646 -40.155457,-12.789345c-8.415588,-7.294456 -10.575226,-10.698631 -17.356049,-15.155914c3.852356,-0.231514 1.828552,7.092377 5.494537,10.529297l-4.004578,-5.782616z"/>
  </g>
 </g>
</svg>